<svg id="line_Icons" height="512" viewBox="0 0 74 74" width="512" xmlns="http://www.w3.org/2000/svg" data-name="line Icons"><path d="m51.437 72h-28.874a4.745 4.745 0 0 1 -4.739-4.739v-54.351a4.745 4.745 0 0 1 4.739-4.74h28.874a4.745 4.745 0 0 1 4.739 4.739v54.352a4.745 4.745 0 0 1 -4.739 4.739zm-28.874-61.83a2.743 2.743 0 0 0 -2.739 2.739v54.352a2.743 2.743 0 0 0 2.739 2.739h28.874a2.743 2.743 0 0 0 2.739-2.739v-54.351a2.743 2.743 0 0 0 -2.739-2.739z"/><path d="m45.217 10.17h-16.434a1 1 0 0 1 -1-1v-4.3a2.873 2.873 0 0 1 2.869-2.87h12.7a2.873 2.873 0 0 1 2.87 2.87v4.3a1 1 0 0 1 -1.005 1zm-15.435-2h14.435v-3.3a.871.871 0 0 0 -.87-.87h-12.7a.871.871 0 0 0 -.87.87z"/><path d="m31.109 57.015a1 1 0 0 1 -.918-1.395l5.173-12.05h-7.987a1 1 0 0 1 -.759-1.651l15.801-18.419a1 1 0 0 1 1.681 1.053l-5.577 12.859h8.1a1 1 0 0 1 .75 1.661l-15.514 17.6a1 1 0 0 1 -.75.342zm-1.556-15.445h7.329a1 1 0 0 1 .919 1.395l-3.3 7.693 9.911-11.246h-7.412a1 1 0 0 1 -.917-1.4l3.549-8.19z"/></svg>