<svg id="_x31_px" enable-background="new 0 0 24 24" height="512" viewBox="0 0 24 24" width="512" xmlns="http://www.w3.org/2000/svg"><path d="m19.5 24h-15c-1.378 0-2.5-1.122-2.5-2.5v-19c0-1.378 1.122-2.5 2.5-2.5h15c1.378 0 2.5 1.122 2.5 2.5v19c0 1.378-1.122 2.5-2.5 2.5zm-15-23c-.827 0-1.5.673-1.5 1.5v19c0 .827.673 1.5 1.5 1.5h15c.827 0 1.5-.673 1.5-1.5v-19c0-.827-.673-1.5-1.5-1.5z"/><path d="m7.25 21h-1.75c-.276 0-.5-.224-.5-.5s.224-.5.5-.5h1.75c.414 0 .75-.336.75-.75s-.336-.75-.75-.75h-.5c-.965 0-1.75-.785-1.75-1.75s.785-1.75 1.75-1.75h1.75c.276 0 .5.224.5.5s-.224.5-.5.5h-1.75c-.414 0-.75.336-.75.75s.336.75.75.75h.5c.965 0 1.75.785 1.75 1.75s-.785 1.75-1.75 1.75z"/><path d="m12 18.5c-.176 0-.338-.092-.429-.243l-1.5-2.5c-.142-.237-.065-.544.171-.686.237-.142.544-.065.686.171l1.072 1.786 1.071-1.786c.142-.237.449-.313.686-.171s.313.449.171.686l-1.5 2.5c-.09.151-.252.243-.428.243z"/><path d="m12 21c-.276 0-.5-.224-.5-.5v-2.5c0-.276.224-.5.5-.5s.5.224.5.5v2.5c0 .276-.224.5-.5.5z"/><path d="m17.25 21h-1.75c-.276 0-.5-.224-.5-.5s.224-.5.5-.5h1.75c.414 0 .75-.336.75-.75s-.336-.75-.75-.75h-.5c-.965 0-1.75-.785-1.75-1.75s.785-1.75 1.75-1.75h1.75c.276 0 .5.224.5.5s-.224.5-.5.5h-1.75c-.414 0-.75.336-.75.75s.336.75.75.75h.5c.965 0 1.75.785 1.75 1.75s-.785 1.75-1.75 1.75z"/></svg>